<?xml version="1.0" encoding="UTF-8" standalone="no"?>
<svg
   xmlns:dc="http://purl.org/dc/elements/1.1/"
   xmlns:cc="http://creativecommons.org/ns#"
   xmlns:rdf="http://www.w3.org/1999/02/22-rdf-syntax-ns#"
   xmlns:svg="http://www.w3.org/2000/svg"
   xmlns="http://www.w3.org/2000/svg"
   viewBox="0 0 1600 1600"
   height="1600"
   width="1600"
   xml:space="preserve"
   id="svg2"
   version="1.1"><metadata
     id="metadata8"><rdf:RDF><cc:Work
         rdf:about=""><dc:format>image/svg+xml</dc:format><dc:type
           rdf:resource="http://purl.org/dc/dcmitype/StillImage" /></cc:Work></rdf:RDF></metadata><defs
     id="defs6" /><g
     transform="matrix(1.3333333,0,0,-1.3333333,0,1600)"
     id="g10"><g
       transform="scale(0.1)"
       id="g12"><path
         id="path14"
         style="fill:#edeae8;fill-opacity:1;fill-rule:nonzero;stroke:none"
         d="M 12000,0 H 0 V 12000 H 12000 V 0" /><path
         id="path16"
         style="fill:#000000;fill-opacity:1;fill-rule:nonzero;stroke:none"
         d="m 6826.17,7996.15 c 84.95,85.15 137.49,202.65 137.49,332.44 0,260 -210.76,470.77 -470.75,470.77 -164.37,0 -308.88,-84.36 -393.08,-212.02 -22.35,-22.42 -1896.36,-2332.16 -1913.86,-2358.69 -84.95,-85.16 -137.5,-202.66 -137.5,-332.45 0,-259.99 210.77,-470.76 470.76,-470.76 164.36,0 308.87,84.36 393.07,212.01 22.36,22.42 1896.37,2332.16 1913.87,2358.7" /><path
         id="path18"
         style="fill:#000000;fill-opacity:1;fill-rule:nonzero;stroke:none"
         d="m 7910.55,6900.19 c 85.15,85.19 137.83,202.86 137.83,332.83 0,259.99 -210.76,470.76 -470.76,470.76 -164.44,0 -309,-84.44 -393.18,-212.2 -22.56,-22.56 -1006.83,-1235.81 -1024.45,-1262.55 -85.17,-85.19 -137.84,-202.86 -137.84,-332.83 0,-259.99 210.77,-470.76 470.76,-470.76 164.43,0 308.99,84.44 393.17,212.2 22.56,22.56 1006.84,1235.81 1024.47,1262.55" /><path
         id="path20"
         style="fill:#000000;fill-opacity:1;fill-rule:nonzero;stroke:none"
         d="m 8937.34,8328.59 c 0,-259.99 -210.76,-470.75 -470.76,-470.75 -259.99,0 -470.75,210.76 -470.75,470.75 0,260 210.76,470.76 470.75,470.76 260,0 470.76,-210.76 470.76,-470.76" /><path
         id="path22"
         style="fill:#000000;fill-opacity:1;fill-rule:nonzero;stroke:none"
         d="m 4989.99,8328.59 c 0,-259.99 -210.77,-470.75 -470.76,-470.75 -259.99,0 -470.76,210.76 -470.76,470.75 0,260 210.77,470.76 470.76,470.76 259.99,0 470.76,-210.76 470.76,-470.76" /><g
         transform="scale(10)"
         id="g24"><text
           id="text28"
           style="font-variant:normal;font-weight:300;font-size:49.79320908px;font-family:Comfortaa;-inkscape-font-specification:Comfortaa-Light;writing-mode:lr-tb;fill:#000000;fill-opacity:1;fill-rule:nonzero;stroke:none"
           transform="matrix(1,0,0,-0.9439038,482.972,316.373)"><tspan
             id="tspan26"
             y="0"
             x="0 35.303215 66.971184 92.017097 107.00439 126.57281 160.23302 193.39513 227.05434">est. 2021</tspan></text>
<text
           id="text32"
           style="font-variant:normal;font-weight:bold;font-size:92px;font-family:Comfortaa;-inkscape-font-specification:Comfortaa-Bold;writing-mode:lr-tb;fill:#000000;fill-opacity:1;fill-rule:nonzero;stroke:none"
           transform="matrix(1,0,0,-1,291.675,399.016)"><tspan
             id="tspan30"
             y="0"
             x="0 89.883263 193.01425 301.75723 374.71185 457.78711 552.5459">COMPANY</tspan></text>
</g></g></g></svg>